<?xml version="1.0" encoding="utf-8"?>
<!-- Generator: Adobe Illustrator 25.2.0, SVG Export Plug-In . SVG Version: 6.00 Build 0)  -->
<svg version="1.1" id="Layer_1" xmlns="http://www.w3.org/2000/svg" xmlns:xlink="http://www.w3.org/1999/xlink" x="0px" y="0px"
	 viewBox="0 0 80 80" style="enable-background:new 0 0 80 80;" xml:space="preserve">
<style type="text/css">
	.st0{fill:#F79571;}
	.st1{fill:#F36F59;}
	.st2{fill:#212529;}
</style>
<g>
	<g>
		<path class="st0" d="M20.7,27.7c0-1,0-2,0.1-2.9c0.1-0.9,0.3-1.8,0.7-2.5c0.4-0.7,0.9-1.4,1.6-1.8c0.7-0.5,1.6-0.7,2.9-0.7
			c1.2,0,2.2,0.2,2.9,0.7c0.7,0.5,1.2,1.1,1.6,1.8c0.4,0.8,0.6,1.6,0.7,2.5c0.1,0.9,0.1,1.9,0.1,2.9v10.9h9.5V27.7c0-1,0-2,0.1-2.9
			c0.1-0.9,0.3-1.8,0.7-2.5c0.4-0.7,0.9-1.4,1.6-1.8s1.6-0.7,2.9-0.7c1.2,0,2.2,0.2,2.9,0.7s1.2,1.1,1.6,1.8
			c0.4,0.8,0.6,1.6,0.7,2.5c0.1,0.9,0.1,1.9,0.1,2.9v32.5c0,1,0,2-0.1,2.9c-0.1,0.9-0.3,1.8-0.7,2.5c-0.4,0.8-0.9,1.3-1.6,1.8
			s-1.7,0.7-2.9,0.7c-1.2,0-2.2-0.2-2.9-0.7s-1.2-1-1.6-1.8c-0.4-0.7-0.6-1.6-0.7-2.5c-0.1-0.9-0.1-1.9-0.1-2.9V48.8h-9.5v11.5
			c0,1,0,2-0.1,2.9c-0.1,0.9-0.3,1.8-0.7,2.5c-0.4,0.8-0.9,1.3-1.6,1.8c-0.7,0.4-1.7,0.7-2.9,0.7c-1.2,0-2.2-0.2-2.9-0.7
			c-0.7-0.4-1.2-1-1.6-1.8c-0.4-0.7-0.6-1.6-0.7-2.5c-0.1-0.9-0.1-1.9-0.1-2.9V27.7z"/>
		<g>
			<path class="st0" d="M20.7,27.7l0.1-2.1c0-0.7,0.1-1.4,0.2-2c0.2-0.7,0.4-1.3,0.8-1.9c0.4-0.6,0.9-1.1,1.5-1.4
				c1.2-0.7,2.7-0.7,4-0.5c1.4,0.2,2.6,1.2,3.2,2.4c0.3,0.6,0.5,1.3,0.6,2c0.1,0.7,0.1,1.4,0.2,2.1c0.1,1.4,0.1,2.7,0.1,4.1l0.1,8.2
				l-0.3-0.3l9.5-0.2l-0.5,0.5l-0.1-6.2l-0.1-3.1l0-1.5l0-1.6c0-0.5,0-1,0.1-1.6c0.1-0.6,0.1-1.1,0.3-1.7c0.3-1.1,0.9-2.2,1.9-3
				c0.5-0.4,1.1-0.7,1.7-0.8c0.6-0.2,1.2-0.2,1.7-0.3c1.1,0,2.3,0,3.5,0.7c1.1,0.6,1.9,1.7,2.4,2.8c0.5,1.1,0.6,2.3,0.6,3.3
				c0.2,2.2,0.2,4.2,0.2,6.2l0.1,12.4l0.1,12.4l0,3.1c0,1-0.1,2.1-0.1,3.2c-0.1,1.1-0.3,2.4-0.9,3.5c-0.3,0.6-0.7,1.2-1.2,1.6
				c-0.3,0.2-0.5,0.4-0.8,0.6c-0.3,0.2-0.6,0.4-1,0.5c-1.3,0.5-2.5,0.5-3.7,0.4c-0.6-0.1-1.2-0.2-1.9-0.5c-0.7-0.3-1.2-0.7-1.7-1.2
				c-0.5-0.5-0.9-1.1-1.1-1.7c-0.3-0.6-0.4-1.2-0.6-1.7c-0.3-1.2-0.2-2.2-0.2-3.3c-0.1-2.1,0-4.1,0-6.2l0.1-6.2l1.1,1.1l-9.5-0.2
				l0.9-0.9L32,57c0,1.4,0,2.7-0.1,4.1l-0.1,2.1c-0.1,0.7-0.3,1.5-0.5,2.2c-0.5,1.4-1.7,2.7-3.3,3.1c-0.7,0.2-1.5,0.2-2.2,0.2
				c-0.7,0-1.5-0.1-2.2-0.4c-1.5-0.6-2.4-2-2.8-3.4c-0.4-1.4-0.3-2.8-0.4-4.2l0.2-16.5L20.7,27.7z M20.7,27.7l0.1,16.5
				c0.1,5.5,0.1,11,0.2,16.5c0.1,1.4,0.1,2.8,0.5,4c0.2,0.6,0.5,1.2,0.9,1.7c0.4,0.5,0.9,0.9,1.5,1c1.1,0.4,2.6,0.4,3.8,0
				c0.6-0.2,1.1-0.5,1.5-0.9c0.4-0.4,0.7-0.9,0.9-1.5c0.2-0.6,0.3-1.2,0.4-1.9l0.1-2c0.1-1.3,0-2.7,0-4.1l-0.2-8.3l0-0.9l1,0
				l9.5-0.2l1.1,0l0,1.1c0.1,4.1,0.1,8.3,0.2,12.3c0.1,1,0.1,2,0.3,2.8c0.1,0.4,0.2,0.8,0.4,1.2c0.2,0.3,0.4,0.6,0.6,0.9
				c0.3,0.2,0.6,0.5,0.8,0.6c0.3,0.1,0.7,0.2,1.1,0.3c0.8,0.1,1.8,0,2.4-0.2c0.2-0.1,0.3-0.1,0.4-0.2c0.2-0.1,0.3-0.2,0.4-0.3
				c0.3-0.2,0.5-0.5,0.6-0.8c0.3-0.7,0.5-1.5,0.6-2.5c0-1,0.1-1.9,0.1-3l0-3.1l0.1-12.4L50.1,32c0-2,0.1-4.2,0-6.1
				c0-2-0.4-3.8-1.8-4.6c-0.6-0.4-1.5-0.6-2.5-0.5c-0.9,0-1.8,0.2-2.4,0.6c-0.7,0.5-1.1,1.2-1.4,2.1c-0.1,0.4-0.2,0.9-0.3,1.4
				l-0.1,1.5l-0.1,1.5l0,1.5l-0.1,3.1l-0.1,6.2l0,0.5l-0.5,0l-9.5-0.2l-0.3,0l0-0.3l0.1-8.2c0-1.4,0.1-2.7,0-4.1c0-0.7,0-1.4-0.1-2
				c-0.1-0.7-0.3-1.3-0.6-1.9c-0.6-1.2-1.7-2.2-3.1-2.4c-1.3-0.2-2.8-0.2-4,0.4c-0.6,0.3-1.1,0.8-1.5,1.4c-0.4,0.6-0.6,1.2-0.8,1.9
				c-0.2,0.7-0.2,1.3-0.2,2L20.7,27.7z"/>
		</g>
	</g>
	<g>
		<path class="st1" d="M24.7,23.7c0-1,0-2,0.1-2.9c0.1-0.9,0.3-1.8,0.7-2.5c0.4-0.7,0.9-1.4,1.6-1.8c0.7-0.5,1.6-0.7,2.9-0.7
			c1.2,0,2.2,0.2,2.9,0.7c0.7,0.5,1.2,1.1,1.6,1.8c0.4,0.8,0.6,1.6,0.7,2.5c0.1,0.9,0.1,1.9,0.1,2.9v10.9h9.5V23.7c0-1,0-2,0.1-2.9
			c0.1-0.9,0.3-1.8,0.7-2.5c0.4-0.7,0.9-1.4,1.6-1.8s1.6-0.7,2.9-0.7c1.2,0,2.2,0.2,2.9,0.7s1.2,1.1,1.6,1.8
			c0.4,0.8,0.6,1.6,0.7,2.5c0.1,0.9,0.1,1.9,0.1,2.9v32.5c0,1,0,2-0.1,2.9c-0.1,0.9-0.3,1.8-0.7,2.5c-0.4,0.8-0.9,1.3-1.6,1.8
			s-1.7,0.7-2.9,0.7c-1.2,0-2.2-0.2-2.9-0.7s-1.2-1-1.6-1.8c-0.4-0.7-0.6-1.6-0.7-2.5c-0.1-0.9-0.1-1.9-0.1-2.9V44.8h-9.5v11.5
			c0,1,0,2-0.1,2.9c-0.1,0.9-0.3,1.8-0.7,2.5c-0.4,0.8-0.9,1.3-1.6,1.8c-0.7,0.4-1.7,0.7-2.9,0.7c-1.2,0-2.2-0.2-2.9-0.7
			c-0.7-0.4-1.2-1-1.6-1.8c-0.4-0.7-0.6-1.6-0.7-2.5c-0.1-0.9-0.1-1.9-0.1-2.9V23.7z"/>
		<g>
			<path class="st1" d="M24.7,23.7l0.1-2.1c0-0.7,0.1-1.4,0.2-2c0.2-0.7,0.4-1.3,0.8-1.9c0.4-0.6,0.9-1.1,1.5-1.4
				c1.2-0.7,2.7-0.7,4-0.5c1.4,0.2,2.6,1.2,3.2,2.4c0.3,0.6,0.5,1.3,0.6,2c0.1,0.7,0.1,1.4,0.2,2.1c0.1,1.4,0.1,2.7,0.1,4.1l0.1,8.2
				l-0.3-0.3l9.5-0.2l-0.5,0.5l-0.1-6.2l-0.1-3.1l0-1.5l0-1.6c0-0.5,0-1,0.1-1.6c0.1-0.6,0.1-1.1,0.3-1.7c0.3-1.1,0.9-2.2,1.9-3
				c0.5-0.4,1.1-0.7,1.7-0.8c0.6-0.2,1.2-0.2,1.7-0.3c1.1,0,2.3,0,3.5,0.7c1.1,0.6,1.9,1.7,2.4,2.8c0.5,1.1,0.6,2.3,0.6,3.3
				c0.2,2.2,0.2,4.2,0.2,6.2l0.1,12.4l0.1,12.4l0,3.1c0,1-0.1,2.1-0.1,3.2c-0.1,1.1-0.3,2.4-0.9,3.5c-0.3,0.6-0.7,1.2-1.2,1.6
				c-0.3,0.2-0.5,0.4-0.8,0.6c-0.3,0.2-0.6,0.4-1,0.5c-1.3,0.5-2.5,0.5-3.7,0.4c-0.6-0.1-1.2-0.2-1.9-0.5c-0.7-0.3-1.2-0.7-1.7-1.2
				c-0.5-0.5-0.9-1.1-1.1-1.7c-0.3-0.6-0.4-1.2-0.6-1.7c-0.3-1.2-0.2-2.2-0.2-3.3c-0.1-2.1,0-4.1,0-6.2l0.1-6.2l1.1,1.1l-9.5-0.2
				l0.9-0.9L36,53c0,1.4,0,2.7-0.1,4.1l-0.1,2.1c-0.1,0.7-0.3,1.5-0.5,2.2c-0.5,1.4-1.7,2.7-3.3,3.1c-0.7,0.2-1.5,0.2-2.2,0.2
				c-0.7,0-1.5-0.1-2.2-0.4c-1.5-0.6-2.4-2-2.8-3.4c-0.4-1.4-0.3-2.8-0.4-4.2l0.2-16.5L24.7,23.7z M24.7,23.7l0.1,16.5
				c0.1,5.5,0.1,11,0.2,16.5c0.1,1.4,0.1,2.8,0.5,4c0.2,0.6,0.5,1.2,0.9,1.7c0.4,0.5,0.9,0.9,1.5,1c1.1,0.4,2.6,0.4,3.8,0
				c0.6-0.2,1.1-0.5,1.5-0.9c0.4-0.4,0.7-0.9,0.9-1.5c0.2-0.6,0.3-1.2,0.4-1.9l0.1-2c0.1-1.3,0-2.7,0-4.1l-0.2-8.3l0-0.9l1,0
				l9.5-0.2l1.1,0l0,1.1c0.1,4.1,0.1,8.3,0.2,12.3c0.1,1,0.1,2,0.3,2.8c0.1,0.4,0.2,0.8,0.4,1.2c0.2,0.3,0.4,0.6,0.6,0.9
				c0.3,0.2,0.6,0.5,0.8,0.6c0.3,0.1,0.7,0.2,1.1,0.3c0.8,0.1,1.8,0,2.4-0.2c0.2-0.1,0.3-0.1,0.4-0.2c0.2-0.1,0.3-0.2,0.4-0.3
				c0.3-0.2,0.5-0.5,0.6-0.8c0.3-0.7,0.5-1.5,0.6-2.5c0-1,0.1-1.9,0.1-3l0-3.1l0.1-12.4L54.1,28c0-2,0.1-4.2,0-6.1
				c0-2-0.4-3.8-1.8-4.6c-0.6-0.4-1.5-0.6-2.5-0.5c-0.9,0-1.8,0.2-2.4,0.6c-0.7,0.5-1.1,1.2-1.4,2.1c-0.1,0.4-0.2,0.9-0.3,1.4
				l-0.1,1.5l-0.1,1.5l0,1.5l-0.1,3.1l-0.1,6.2l0,0.5l-0.5,0l-9.5-0.2l-0.3,0l0-0.3l0.1-8.2c0-1.4,0.1-2.7,0-4.1c0-0.7,0-1.4-0.1-2
				c-0.1-0.7-0.3-1.3-0.6-1.9c-0.6-1.2-1.7-2.2-3.1-2.4c-1.3-0.2-2.8-0.2-4,0.4c-0.6,0.3-1.1,0.8-1.5,1.4c-0.4,0.6-0.6,1.2-0.8,1.9
				c-0.2,0.7-0.2,1.3-0.2,2L24.7,23.7z"/>
		</g>
	</g>
	<g>
		<path class="st2" d="M28.7,19.7c0-1,0-2,0.1-2.9c0.1-0.9,0.3-1.8,0.7-2.5c0.4-0.7,0.9-1.4,1.6-1.8c0.7-0.5,1.6-0.7,2.9-0.7
			c1.2,0,2.2,0.2,2.9,0.7c0.7,0.5,1.2,1.1,1.6,1.8c0.4,0.8,0.6,1.6,0.7,2.5c0.1,0.9,0.1,1.9,0.1,2.9v10.9h9.5V19.7c0-1,0-2,0.1-2.9
			c0.1-0.9,0.3-1.8,0.7-2.5c0.4-0.7,0.9-1.4,1.6-1.8s1.6-0.7,2.9-0.7c1.2,0,2.2,0.2,2.9,0.7s1.2,1.1,1.6,1.8
			c0.4,0.8,0.6,1.6,0.7,2.5c0.1,0.9,0.1,1.9,0.1,2.9v32.5c0,1,0,2-0.1,2.9c-0.1,0.9-0.3,1.8-0.7,2.5c-0.4,0.8-0.9,1.3-1.6,1.8
			s-1.7,0.7-2.9,0.7c-1.2,0-2.2-0.2-2.9-0.7s-1.2-1-1.6-1.8c-0.4-0.7-0.6-1.6-0.7-2.5c-0.1-0.9-0.1-1.9-0.1-2.9V40.8h-9.5v11.5
			c0,1,0,2-0.1,2.9c-0.1,0.9-0.3,1.8-0.7,2.5c-0.4,0.8-0.9,1.3-1.6,1.8c-0.7,0.4-1.7,0.7-2.9,0.7c-1.2,0-2.2-0.2-2.9-0.7
			c-0.7-0.4-1.2-1-1.6-1.8c-0.4-0.7-0.6-1.6-0.7-2.5c-0.1-0.9-0.1-1.9-0.1-2.9V19.7z"/>
		<g>
			<path class="st2" d="M28.7,19.7l0.1-2.1c0-0.7,0.1-1.4,0.2-2c0.2-0.7,0.4-1.3,0.8-1.9c0.4-0.6,0.9-1.1,1.5-1.4
				c1.2-0.7,2.7-0.7,4-0.5c1.4,0.2,2.6,1.2,3.2,2.4c0.3,0.6,0.5,1.3,0.6,2c0.1,0.7,0.1,1.4,0.2,2.1c0.1,1.4,0.1,2.7,0.1,4.1l0.1,8.2
				l-0.3-0.3l9.5-0.2l-0.5,0.5l-0.1-6.2l-0.1-3.1l0-1.5l0-1.6c0-0.5,0-1,0.1-1.6c0.1-0.6,0.1-1.1,0.3-1.7c0.3-1.1,0.9-2.2,1.9-3
				c0.5-0.4,1.1-0.7,1.7-0.8c0.6-0.2,1.2-0.2,1.7-0.3c1.1,0,2.3,0,3.5,0.7c1.1,0.6,1.9,1.7,2.4,2.8c0.5,1.1,0.6,2.3,0.6,3.3
				c0.2,2.2,0.2,4.2,0.2,6.2l0.1,12.4l0.1,12.4l0,3.1c0,1-0.1,2.1-0.1,3.2c-0.1,1.1-0.3,2.4-0.9,3.5c-0.3,0.6-0.7,1.2-1.2,1.6
				c-0.3,0.2-0.5,0.4-0.8,0.6c-0.3,0.2-0.6,0.4-1,0.5c-1.3,0.5-2.5,0.5-3.7,0.4c-0.6-0.1-1.2-0.2-1.9-0.5c-0.7-0.3-1.2-0.7-1.7-1.2
				c-0.5-0.5-0.9-1.1-1.1-1.7c-0.3-0.6-0.4-1.2-0.6-1.7c-0.3-1.2-0.2-2.2-0.2-3.3c-0.1-2.1,0-4.1,0-6.2l0.1-6.2l1.1,1.1l-9.5-0.2
				l0.9-0.9L40,49c0,1.4,0,2.7-0.1,4.1l-0.1,2.1c-0.1,0.7-0.3,1.5-0.5,2.2c-0.5,1.4-1.7,2.7-3.3,3.1c-0.7,0.2-1.5,0.2-2.2,0.2
				c-0.7,0-1.5-0.1-2.2-0.4c-1.5-0.6-2.4-2-2.8-3.4c-0.4-1.4-0.3-2.8-0.4-4.2l0.2-16.5L28.7,19.7z M28.7,19.7l0.1,16.5
				c0.1,5.5,0.1,11,0.2,16.5c0.1,1.4,0.1,2.8,0.5,4c0.2,0.6,0.5,1.2,0.9,1.7c0.4,0.5,0.9,0.9,1.5,1c1.1,0.4,2.6,0.4,3.8,0
				c0.6-0.2,1.1-0.5,1.5-0.9c0.4-0.4,0.7-0.9,0.9-1.5c0.2-0.6,0.3-1.2,0.4-1.9l0.1-2c0.1-1.3,0-2.7,0-4.1l-0.2-8.3l0-0.9l1,0
				l9.5-0.2l1.1,0l0,1.1c0.1,4.1,0.1,8.3,0.2,12.3c0.1,1,0.1,2,0.3,2.8c0.1,0.4,0.2,0.8,0.4,1.2c0.2,0.3,0.4,0.6,0.6,0.9
				c0.3,0.2,0.6,0.5,0.8,0.6c0.3,0.1,0.7,0.2,1.1,0.3c0.8,0.1,1.8,0,2.4-0.2c0.2-0.1,0.3-0.1,0.4-0.2c0.2-0.1,0.3-0.2,0.4-0.3
				c0.3-0.2,0.5-0.5,0.6-0.8c0.3-0.7,0.5-1.5,0.6-2.5c0-1,0.1-1.9,0.1-3l0-3.1l0.1-12.4L58.1,24c0-2,0.1-4.2,0-6.1
				c0-2-0.4-3.8-1.8-4.6c-0.6-0.4-1.5-0.6-2.5-0.5c-0.9,0-1.8,0.2-2.4,0.6c-0.7,0.5-1.1,1.2-1.4,2.1c-0.1,0.4-0.2,0.9-0.3,1.4
				l-0.1,1.5l-0.1,1.5l0,1.5l-0.1,3.1l-0.1,6.2l0,0.5l-0.5,0l-9.5-0.2l-0.3,0l0-0.3l0.1-8.2c0-1.4,0.1-2.7,0-4.1c0-0.7,0-1.4-0.1-2
				c-0.1-0.7-0.3-1.3-0.6-1.9c-0.6-1.2-1.7-2.2-3.1-2.4c-1.3-0.2-2.8-0.2-4,0.4c-0.6,0.3-1.1,0.8-1.5,1.4c-0.4,0.6-0.6,1.2-0.8,1.9
				c-0.2,0.7-0.2,1.3-0.2,2L28.7,19.7z"/>
		</g>
	</g>
</g>
</svg>
